#N canvas 558 171 607 593 10;
#X obj -212 323 sig~;
#X obj -212 345 +~;
#X obj -226 19 inlet;
#X obj -212 538 outlet~;
#X obj -226 285 *~;
#X obj -158 205 *~;
#X obj -115 210 *~;
#X obj -100 187 -~;
#X obj -158 226 +~;
#X obj -226 121 inlet;
#X text -241 307 carrier;
#X obj -226 187 * 1;
#X obj -143 115 inlet;
#X obj -85 108 inlet;
#X text -145 91 ind1;
#X text -93 90 ind2;
#X obj -226 155 t b f;
#X obj -212 375 +~;
#X text -227 4 carrier;
#X text -229 102 ratio1;
#X obj -212 404 +~;
#X obj -46 341 *~;
#X obj -11 304 *~;
#X obj 29 300 *~;
#X obj 44 280 -~;
#X obj -11 325 +~;
#X obj -46 185 inlet;
#X obj -46 222 * 1;
#X obj 4 200 inlet;
#X obj 59 213 inlet;
#X obj -46 204 t b f;
#X obj 111 212 *~;
#X obj 146 175 *~;
#X obj 186 171 *~;
#X obj 201 148 -~;
#X obj 146 196 +~;
#X obj 111 34 inlet;
#X obj 111 89 * 1;
#X obj 161 73 inlet;
#X obj 200 72 inlet;
#X obj 111 68 t b f;
#X text -49 166 ratio2;
#X text 2 180 ind3;
#X text 51 199 ind4;
#X text 108 15 ratio3;
#X text 159 49 ind5;
#X text 192 54 ind6;
#X obj -160 440 +~ 0.5;
#X msg -107 433 \$1 50;
#X obj -160 401 osc~ 1;
#X obj -175 461 *~;
#X obj -107 453 line~;
#X obj -107 413 r GRingModMix;
#X obj -114 387 r GRingModOffset;
#X obj -160 328 r GRingModF;
#X obj -160 380 lop~ 1;
#X obj -160 355 sig~;
#X obj -226 255 tabosc4~ osc1;
#X obj -46 286 tabosc4~ osc2;
#X obj 111 153 tabosc4~ osc3;
#X obj -212 432 tabosc4~ oscMain;
#X obj -143 158 line~;
#X msg -143 137 \$1 10;
#X obj -85 150 line~;
#X msg -85 129 \$1 10;
#X obj 59 254 line~;
#X msg 59 233 \$1 10;
#X obj 4 243 line~;
#X msg 4 222 \$1 10;
#X obj -46 264 line~;
#X msg -46 243 \$1 10;
#X obj -226 231 line~;
#X msg -226 210 \$1 10;
#X obj 200 114 line~;
#X msg 200 93 \$1 10;
#X obj 160 115 line~;
#X msg 160 94 \$1 10;
#X obj 111 131 line~;
#X msg 111 110 \$1 10;
#X obj -212 508 *~ 0.6;
#N canvas 635 628 450 300 crossFadeFunc 0;
#X obj 44 146 *~;
#X obj 290 61 *~;
#X obj 290 82 *~ -1;
#X obj 290 105 +~ 1;
#X obj 44 210 +~;
#X obj 139 146 *~;
#X obj 45 242 outlet~;
#X obj 42 26 inlet~;
#X obj 140 25 inlet~;
#X obj 291 23 inlet~;
#X connect 0 0 4 0;
#X connect 1 0 2 0;
#X connect 1 0 5 1;
#X connect 2 0 3 0;
#X connect 3 0 0 1;
#X connect 4 0 6 0;
#X connect 5 0 4 1;
#X connect 7 0 0 0;
#X connect 8 0 5 0;
#X connect 9 0 1 0;
#X connect 9 0 1 1;
#X restore -212 488 pd crossFadeFunc;
#X connect 0 0 1 0;
#X connect 1 0 17 0;
#X connect 2 0 0 0;
#X connect 2 0 11 0;
#X connect 2 0 27 0;
#X connect 2 0 37 0;
#X connect 4 0 1 1;
#X connect 5 0 8 0;
#X connect 6 0 8 1;
#X connect 7 0 6 1;
#X connect 8 0 4 1;
#X connect 9 0 16 0;
#X connect 11 0 72 0;
#X connect 12 0 62 0;
#X connect 13 0 64 0;
#X connect 16 0 11 0;
#X connect 16 1 11 1;
#X connect 17 0 20 0;
#X connect 20 0 60 0;
#X connect 21 0 17 1;
#X connect 22 0 25 0;
#X connect 23 0 25 1;
#X connect 24 0 23 1;
#X connect 25 0 21 1;
#X connect 26 0 30 0;
#X connect 27 0 70 0;
#X connect 28 0 68 0;
#X connect 29 0 66 0;
#X connect 30 0 27 0;
#X connect 30 1 27 1;
#X connect 31 0 20 1;
#X connect 32 0 35 0;
#X connect 33 0 35 1;
#X connect 34 0 33 1;
#X connect 35 0 31 1;
#X connect 36 0 40 0;
#X connect 37 0 78 0;
#X connect 38 0 76 0;
#X connect 39 0 74 0;
#X connect 40 0 37 0;
#X connect 40 1 37 1;
#X connect 47 0 50 1;
#X connect 48 0 51 0;
#X connect 49 0 47 0;
#X connect 50 0 80 1;
#X connect 51 0 80 2;
#X connect 52 0 48 0;
#X connect 53 0 47 1;
#X connect 54 0 56 0;
#X connect 55 0 49 0;
#X connect 56 0 55 0;
#X connect 57 0 4 0;
#X connect 58 0 21 0;
#X connect 59 0 31 0;
#X connect 60 0 50 0;
#X connect 60 0 80 0;
#X connect 61 0 5 1;
#X connect 61 0 7 0;
#X connect 62 0 61 0;
#X connect 63 0 7 1;
#X connect 64 0 63 0;
#X connect 65 0 24 1;
#X connect 66 0 65 0;
#X connect 67 0 22 1;
#X connect 67 0 24 0;
#X connect 68 0 67 0;
#X connect 69 0 58 0;
#X connect 69 0 22 0;
#X connect 69 0 23 0;
#X connect 70 0 69 0;
#X connect 71 0 57 0;
#X connect 71 0 5 0;
#X connect 71 0 6 0;
#X connect 72 0 71 0;
#X connect 73 0 34 1;
#X connect 74 0 73 0;
#X connect 75 0 32 1;
#X connect 75 0 34 0;
#X connect 76 0 75 0;
#X connect 77 0 59 0;
#X connect 77 0 32 0;
#X connect 77 0 33 0;
#X connect 78 0 77 0;
#X connect 79 0 3 0;
#X connect 80 0 79 0;
#X coords 0 -1 1 1 250 10 1 100 100;
