#N canvas 94 22 704 852 10;
#X obj -191 153 cnv 15 500 130 empty empty empty 20 12 0 14 -233017
-66577 0;
#X text 29 153 GlobalEnv;
#X obj -30 246 s \$0-LFOGenv;
#X obj -29 190 i;
#X obj -29 225 s \$0-bpmGenvtable;
#X obj -186 230 s \$0-releasePoint;
#X obj -187 251 s \$0-loopLenght;
#X obj 80 246 s \$0-GenvTableTimes;
#X obj 80 225 i;
#X obj -186 208 i;
#X obj 104 225 s \$0-GenvLoHi;
#X text -159 212 (0 - 510);
#X text 52 180 LFO controls;
#X text 47 249 Hz;
#X text 159 210 Lfo slider range change;
#X obj 144 207 tgl 15 0 empty empty empty 17 7 0 10 -262144 -1 -1 0
1;
#X text 129 259 num of iter on dur (def1);
#X text -187 191 Sustain/loop env;
#X text -35 209 clock div based LFO;
#X obj -191 21 cnv 15 500 130 empty empty empty 20 12 0 14 -233017
-66577 0;
#X obj 89 112 s \$0-dur1;
#X obj -136 50 s \$0-fmoda1 \$1;
#X obj -46 49 s \$0-fmodb1 \$1;
#X obj 44 49 s \$0-fmodc1 \$1;
#X obj -95 79 s \$0-inda11 \$1;
#X obj -5 81 s \$0-inda21 \$1;
#X obj -94 97 s \$0-indb11 \$1;
#X obj -6 98 s \$0-indb21 \$1;
#X obj -94 117 s \$0-indc11 \$1;
#X obj -4 115 s \$0-indc21 \$1;
#X obj -184 110 s PitchOffset;
#X obj -184 91 i;
#X obj 135 58 s \$0-GlideOn;
#X obj 134 77 s \$0-GlideTime;
#X text -68 19 Frequency Modulation Global Parameters;
#X text -190 70 -24 +24;
#X text -155 33 C/M Multipliers;
#X text -34 65 Mod Indexes;
#X text 154 37 Glide;
#X obj 135 38 tgl 15 0 empty empty empty 17 7 0 10 -262144 -1 -1 0
1;
#X text 115 76 ms;
#X obj 196 101 s \$0-wavesh1;
#X obj 206 111 s \$0-wavesh2;
#X obj 216 121 s \$0-wavesh3;
#X obj 226 131 s \$0-wavesh4;
#X text 291 100 Main Osc;
#X text 301 110 mod Osc1;
#X text 311 120 mod Osc2;
#X text 321 130 mod Osc3;
#X text 230 69 (0 - 5);
#X text 229 84 sine \, triangle \, square \, saw1 \, saw2;
#X text 277 69 int;
#X text 85 95 Note Duration ms;
#X text -92 133 (0. - 1.) > 1 noisy timbre;
#X obj -191 285 cnv 15 500 130 empty empty empty 20 12 0 14 -233017
-66577 0;
#X text 42 293 Index1;
#X obj -97 343 i;
#X obj 218 366 s \$0-ModINDEX;
#X obj -97 365 s \$0-durIndTable;
#X obj 144 365 s \$0-LFOhz;
#X obj 25 364 s \$0-bpmINDEXtable;
#X obj 25 344 i;
#X obj -188 366 s \$0-envLock;
#X text -194 379 lock table read to Genv;
#X obj -188 335 tgl 15 0 empty empty empty 17 7 0 10 -262144 -1 -1
0 1;
#X text -122 327 num of iter on dur (def1);
#X text 227 351 Lfo Amplitude Multiplier;
#X text 247 340 (0.-1.);
#X text 18 378 clock div based LFO;
#X text 154 379 LFO Hz;
#X obj -191 417 cnv 15 500 130 empty empty empty 20 12 0 14 -233017
-66577 0;
#X obj -191 549 cnv 15 500 130 empty empty empty 20 12 0 14 -233017
-66577 0;
#X obj -191 681 cnv 15 500 130 empty empty empty 20 12 0 14 -233017
-66577 0;
#X obj -191 813 cnv 15 500 130 empty empty empty 20 12 0 14 -233017
-66577 0;
#X obj -96 484 i;
#X obj 11 484 i;
#X obj -96 506 s \$0-durIndTable2;
#X obj 11 504 s \$0-bpmINDEXtable2;
#X obj 206 504 s \$0-ModINDEX2;
#X obj 136 505 s \$0-LFOhz2;
#X obj -185 506 s \$0-envLock2;
#X obj -185 486 tgl 15 0 empty empty empty 17 7 0 10 -262144 -1 -1
0 1;
#X text 45 425 Index2;
#X obj 145 318 s \$0-IndEnvLoHi1;
#X obj 145 297 tgl 15 0 empty empty empty 17 7 0 10 -262144 -1 -1 0
1;
#X text 161 299 Lfo slider range change;
#X obj 144 466 s \$0-IndEnvLoHi2;
#X obj 144 446 tgl 15 0 empty empty empty 17 7 0 10 -262144 -1 -1 0
1;
#X text 40 554 Index3;
#X obj -102 621 i;
#X obj 11 621 i;
#X obj 11 641 s \$0-bpmINDEXtable3;
#X obj -102 643 s \$0-durIndTable3;
#X obj 140 641 s \$0-LFOhz3;
#X obj 215 640 s \$0-ModINDEX3;
#X obj -188 642 s \$0-envLock3;
#X obj 149 598 s \$0-IndEnvLoHi3;
#X obj -177 614 tgl 15 0 empty empty empty 17 7 0 10 -262144 -1 -1
0 1;
#X obj 152 580 tgl 15 0 empty empty empty 17 7 0 10 -262144 -1 -1 0
1;
#X text 44 682 FmRatio;
#X obj -85 756 s \$0-ModulationAMP;
#X obj 34 756 s \$0-LFOFMhz;
#X obj 215 756 s \$0-durFMTable;
#X obj 118 756 s \$0-bpmfmtable;
#X obj 118 734 i;
#X obj 215 734 i;
#X obj -188 736 bng 15 250 50 0 empty empty empty 17 7 0 10 -262144
-1 -1;
#X obj -188 756 s \$0-clearModTab;
#X text 41 816 PitchEnv;
#X obj -56 847 s \$0-PitchLFOhz;
#X obj 42 846 s \$0-durPitchTable;
#X obj 156 845 s \$0-bpmPitchtable;
#X obj -180 847 s \$0-PitchEnvAmount;
#X obj -176 915 s \$0-clearPitchEnv;
#X obj -176 892 bng 15 250 50 0 empty empty empty 17 7 0 10 -262144
-1 -1;
#X text -190 719 reset table content;
#X text -157 897 reset table content;
#X text -97 738 Lfo Amplitude Multiplier;
#X text -77 727 (0.-1.);
#X text 58 734 LFO Hz;
#X text 102 717 clock div based LFO;
#N canvas 858 286 450 300 plugyourowngenerator 1;
#X obj 88 13 inlet;
#X obj 88 36 unpack f f f;
#X obj 176 100 s \$0-dur1;
#X obj 157 136 s \$0-durChange;
#X obj 88 216 s PitchNoteIn;
#X obj 133 191 s VelNoteIn;
#X obj 88 113 makenote;
#X obj 157 69 t b f f;
#X obj 133 93 + 1;
#X text 126 8 your own note generator;
#X connect 0 0 1 0;
#X connect 1 0 6 0;
#X connect 1 1 6 1;
#X connect 1 2 7 0;
#X connect 6 0 4 0;
#X connect 6 1 5 0;
#X connect 7 0 3 0;
#X connect 7 1 2 0;
#X connect 7 2 8 0;
#X connect 8 0 6 2;
#X restore 340 497 pd plugyourowngenerator;
#X msg 389 445 60 100 1000;
#X text 347 461 your own note generator;
#X text 396 484 V;
#X text 396 474 |;
#X text 367 428 pitch - vel- dur(ms);
#X connect 3 0 4 0;
#X connect 8 0 7 0;
#X connect 9 0 5 0;
#X connect 15 0 10 0;
#X connect 31 0 30 0;
#X connect 39 0 32 0;
#X connect 56 0 58 0;
#X connect 61 0 60 0;
#X connect 64 0 62 0;
#X connect 74 0 76 0;
#X connect 75 0 77 0;
#X connect 81 0 80 0;
#X connect 84 0 83 0;
#X connect 89 0 92 0;
#X connect 90 0 91 0;
#X connect 97 0 95 0;
#X connect 104 0 103 0;
#X connect 105 0 102 0;
#X connect 106 0 107 0;
#X connect 114 0 113 0;
#X connect 122 0 121 0;
