#N canvas 62 208 348 617 10;
#X obj 231 -20 inlet;
#X obj 54 217 tgl 15 0 empty empty empty 17 7 0 10 -262144 -1 -1 0
1;
#X obj 54 237 sel 1 0;
#X msg 54 268 bang;
#X msg 88 268 stop;
#X obj 54 321 delay 100;
#X obj 108 235 /;
#X obj 54 -20 inlet;
#X obj 53 563 outlet;
#X obj 54 152 > 0;
#X obj -13 -20 loadbang;
#X obj -13 3 f \$1;
#X obj 54 426 pack 1 f;
#X obj 122 283 t a a;
#X obj 10 308 t b;
#X obj 54 345 t b b;
#X obj 54 519 line 0 1;
#X obj 54 541 wrap 1;
#X obj 54 74 f;
#X msg 61 98 0;
#X obj 81 153 sel 0;
#X obj 54 373 pack 1 f;
#X obj 54 398 +;
#X msg 82 496 set \$1;
#X obj 82 461 f 0;
#X obj 231 14 t b b a a;
#X obj 282 35 t a a;
#X obj 54 128 t a a;
#X obj 113 461 f 0;
#X obj 113 433 bang;
#X obj 8 339 t b;
#X obj 168 240 * 1000;
#X obj 168 308 -;
#X obj 183 216 change;
#X obj 168 287 t b f;
#X msg 108 213 1000 \$1;
#X obj 108 193 t f f;
#X obj 168 264 /;
#X connect 0 0 25 0;
#X connect 1 0 2 0;
#X connect 2 0 3 0;
#X connect 2 1 4 0;
#X connect 3 0 5 0;
#X connect 3 0 30 0;
#X connect 4 0 5 0;
#X connect 5 0 14 0;
#X connect 5 0 15 0;
#X connect 6 0 32 0;
#X connect 7 0 18 0;
#X connect 9 0 1 0;
#X connect 10 0 11 0;
#X connect 11 0 18 0;
#X connect 12 0 16 0;
#X connect 13 0 5 1;
#X connect 13 1 12 1;
#X connect 14 0 5 0;
#X connect 15 0 21 0;
#X connect 15 1 24 0;
#X connect 16 0 17 0;
#X connect 17 0 8 0;
#X connect 17 0 28 1;
#X connect 17 0 31 0;
#X connect 18 0 27 0;
#X connect 19 0 27 0;
#X connect 19 0 32 1;
#X connect 20 1 29 0;
#X connect 20 1 36 0;
#X connect 21 0 22 0;
#X connect 22 0 12 0;
#X connect 23 0 16 0;
#X connect 24 0 23 0;
#X connect 25 0 18 0;
#X connect 25 1 19 0;
#X connect 25 2 21 1;
#X connect 25 3 26 0;
#X connect 26 0 16 0;
#X connect 26 1 24 1;
#X connect 27 0 9 0;
#X connect 27 1 20 0;
#X connect 28 0 23 0;
#X connect 29 0 28 0;
#X connect 30 0 21 0;
#X connect 31 0 37 0;
#X connect 32 0 13 0;
#X connect 33 0 37 1;
#X connect 34 0 32 0;
#X connect 34 1 32 1;
#X connect 35 0 6 0;
#X connect 36 0 35 0;
#X connect 36 1 33 0;
#X connect 37 0 34 0;
