#N canvas 0 22 408 279 10;
#X obj 32 123 f;
#X obj 96 124 f;
#X obj 139 124 f;
#X obj 305 117 f;
#X obj 32 147 -;
#X obj 32 171 *;
#X obj 87 147 -;
#X obj 340 113 f;
#X obj 32 195 /;
#X obj 61 147 -;
#X obj 32 217 +;
#X msg 98 90 0;
#X msg 225 88 127;
#X msg 301 91 0;
#X msg 343 101 1;
#X floatatom 24 95 5 0 0 0 - - -;
#X floatatom 108 55 5 0 0 0 - - -;
#X floatatom 234 44 5 0 0 0 - - -;
#X floatatom 306 51 5 0 0 0 - - -;
#X floatatom 352 66 5 0 0 0 - - -;
#X obj 32 240 outlet;
#X obj 16 28 inlet;
#X obj 96 27 inlet;
#X obj 225 17 inlet;
#X obj 303 21 inlet;
#X obj 352 23 inlet;
#X connect 0 0 4 0;
#X connect 1 0 4 1;
#X connect 1 0 9 1;
#X connect 2 0 9 0;
#X connect 3 0 6 1;
#X connect 3 0 10 1;
#X connect 4 0 5 0;
#X connect 5 0 8 0;
#X connect 6 0 5 1;
#X connect 7 0 6 0;
#X connect 8 0 10 0;
#X connect 9 0 8 1;
#X connect 10 0 20 0;
#X connect 11 0 1 0;
#X connect 12 0 2 0;
#X connect 13 0 3 0;
#X connect 14 0 7 0;
#X connect 15 0 0 0;
#X connect 16 0 1 0;
#X connect 17 0 2 0;
#X connect 18 0 3 0;
#X connect 19 0 7 0;
#X connect 21 0 0 0;
#X connect 22 0 1 0;
#X connect 23 0 2 0;
#X connect 24 0 3 0;
#X connect 25 0 7 0;
