#N canvas 215 135 1134 707 10;
#X declare -lib mrpeach;
#X obj -51 -113 unpackOSC;
#X obj -51 -92 pipelist;
#X obj -51 -156 import mrpeach;
#X obj -51 -38 routeOSC /uno /due /tre /quattro /cinque /sei /sette
/otto /nove /dieci;
#X obj 82 -62 prepend set;
#X obj 82 -107 pack s s s s s s s s s s;
#X msg 82 -84 /\$1 /\$2 /\$3 /\$4 /\$5 /\$6 /\$7 /\$8 /\$9 /\$10;
#X obj -51 -134 udpreceive;
#X msg 763 -138 port \$1;
#X floatatom 853 110 5 0 0 0 - - -;
#N canvas 740 309 544 462 osc-utility1 1;
#X obj 21 372 s;
#X symbolatom 104 140 10 0 0 0 - - -;
#X text 104 125 send to;
#X obj 21 238 spigot;
#X floatatom 239 142 5 0 0 0 - - -;
#X text 238 127 val;
#X obj 113 113 tgl 15 0 empty empty empty 17 7 0 10 -262144 -1 -1 0
1;
#X obj 189 239 loadbang;
#X msg 86 281 0;
#X msg 216 280 0;
#X text 51 322 f(x) = [(b-a)*(x-min)/(max-min)] + a;
#X obj 21 303 expr ($f5 - $f4)*($f1-$f2) / ($f3-$f2) + $f4;
#X msg 252 281 1;
#X floatatom 360 142 5 0 0 2 A - -;
#X floatatom 397 142 5 0 0 2 B - -;
#X text 101 100 On/Off;
#X floatatom 451 114 5 1 4 0 - - -;
#X text 452 97 exp;
#X obj 21 215 inlet;
#X msg 151 282 1;
#X obj 21 281 pow 1;
#X text 376 112 to (a \, b);
#X text 431 139 =>;
#X floatatom 451 141 5 0 0 0 - - -;
#X text 139 336 or;
#X obj 99 354 linscale;
#X symbolatom 170 141 10 0 0 0 - - -;
#X text 171 113 OSC-path;
#X floatatom 278 142 5 0 0 2 min - -;
#X floatatom 315 142 5 0 0 2 max - -;
#X text 271 111 scale (min \, max);
#X text 18 200 value;
#X obj 21 259 / 1;
#X obj 83 219 s \$0-path1;
#X text 167 124 (no /);
#X connect 1 0 0 1;
#X connect 3 0 4 0;
#X connect 3 0 32 0;
#X connect 6 0 3 1;
#X connect 7 0 8 0;
#X connect 7 0 19 0;
#X connect 7 0 9 0;
#X connect 7 0 12 0;
#X connect 8 0 11 1;
#X connect 9 0 11 3;
#X connect 11 0 0 0;
#X connect 11 0 23 0;
#X connect 12 0 16 0;
#X connect 12 0 14 0;
#X connect 13 0 11 3;
#X connect 14 0 11 4;
#X connect 16 0 20 1;
#X connect 18 0 3 0;
#X connect 19 0 11 2;
#X connect 20 0 11 0;
#X connect 26 0 33 0;
#X connect 28 0 11 1;
#X connect 29 0 11 2;
#X connect 29 0 32 1;
#X connect 32 0 20 0;
#X coords 0 -1 1 1 385 60 2 100 100;
#X restore 114 128 pd osc-utility1;
#N canvas 740 309 544 462 osc-utility1 0;
#X obj 21 372 s;
#X symbolatom 104 140 10 0 0 0 - - -;
#X text 104 125 send to;
#X obj 21 238 spigot;
#X floatatom 239 142 5 0 0 0 - - -;
#X text 238 127 val;
#X obj 113 113 tgl 15 0 empty empty empty 17 7 0 10 -262144 -1 -1 0
1;
#X obj 189 239 loadbang;
#X msg 86 281 0;
#X msg 216 280 0;
#X text 51 322 f(x) = [(b-a)*(x-min)/(max-min)] + a;
#X obj 21 303 expr ($f5 - $f4)*($f1-$f2) / ($f3-$f2) + $f4;
#X msg 252 281 1;
#X floatatom 360 142 5 0 0 2 A - -;
#X floatatom 397 142 5 0 0 2 B - -;
#X text 101 100 On/Off;
#X floatatom 451 114 5 1 4 0 - - -;
#X text 452 97 exp;
#X obj 21 215 inlet;
#X msg 151 282 1;
#X obj 21 281 pow 1;
#X text 376 112 to (a \, b);
#X text 431 139 =>;
#X floatatom 451 141 5 0 0 0 - - -;
#X text 139 336 or;
#X obj 99 354 linscale;
#X symbolatom 170 141 10 0 0 0 - - -;
#X text 171 113 OSC-path;
#X text 167 124 (no 1st /);
#X floatatom 278 142 5 0 0 2 min - -;
#X floatatom 315 142 5 0 0 2 max - -;
#X text 271 111 scale (min \, max);
#X text 18 200 value;
#X obj 21 259 / 1;
#X obj 83 219 s \$0-path2;
#X connect 1 0 0 1;
#X connect 3 0 4 0;
#X connect 3 0 33 0;
#X connect 6 0 3 1;
#X connect 7 0 8 0;
#X connect 7 0 19 0;
#X connect 7 0 9 0;
#X connect 7 0 12 0;
#X connect 8 0 11 1;
#X connect 9 0 11 3;
#X connect 11 0 0 0;
#X connect 11 0 23 0;
#X connect 12 0 16 0;
#X connect 12 0 14 0;
#X connect 13 0 11 3;
#X connect 14 0 11 4;
#X connect 16 0 20 1;
#X connect 18 0 3 0;
#X connect 19 0 11 2;
#X connect 20 0 11 0;
#X connect 26 0 34 0;
#X connect 29 0 11 1;
#X connect 30 0 11 2;
#X connect 30 0 33 1;
#X connect 33 0 20 0;
#X coords 0 -1 1 1 385 60 2 100 100;
#X restore 501 128 pd osc-utility1;
#N canvas 740 309 544 462 osc-utility1 0;
#X obj 21 372 s;
#X symbolatom 104 140 10 0 0 0 - - -;
#X text 104 125 send to;
#X obj 21 238 spigot;
#X floatatom 239 142 5 0 0 0 - - -;
#X text 238 127 val;
#X obj 113 113 tgl 15 0 empty empty empty 17 7 0 10 -262144 -1 -1 0
1;
#X obj 189 239 loadbang;
#X msg 86 281 0;
#X msg 216 280 0;
#X text 51 322 f(x) = [(b-a)*(x-min)/(max-min)] + a;
#X obj 21 303 expr ($f5 - $f4)*($f1-$f2) / ($f3-$f2) + $f4;
#X msg 252 281 1;
#X floatatom 360 142 5 0 0 2 A - -;
#X floatatom 397 142 5 0 0 2 B - -;
#X text 101 100 On/Off;
#X floatatom 451 114 5 1 4 0 - - -;
#X text 452 97 exp;
#X obj 21 215 inlet;
#X msg 151 282 1;
#X obj 21 281 pow 1;
#X text 376 112 to (a \, b);
#X text 431 139 =>;
#X floatatom 451 141 5 0 0 0 - - -;
#X text 139 336 or;
#X obj 99 354 linscale;
#X symbolatom 170 141 10 0 0 0 - - -;
#X text 171 113 OSC-path;
#X text 167 124 (no 1st /);
#X floatatom 278 142 5 0 0 2 min - -;
#X floatatom 315 142 5 0 0 2 max - -;
#X text 271 111 scale (min \, max);
#X text 18 200 value;
#X obj 21 259 / 1;
#X obj 83 219 s \$0-path3;
#X connect 1 0 0 1;
#X connect 3 0 4 0;
#X connect 3 0 33 0;
#X connect 6 0 3 1;
#X connect 7 0 8 0;
#X connect 7 0 19 0;
#X connect 7 0 9 0;
#X connect 7 0 12 0;
#X connect 8 0 11 1;
#X connect 9 0 11 3;
#X connect 11 0 0 0;
#X connect 11 0 23 0;
#X connect 12 0 16 0;
#X connect 12 0 14 0;
#X connect 13 0 11 3;
#X connect 14 0 11 4;
#X connect 16 0 20 1;
#X connect 18 0 3 0;
#X connect 19 0 11 2;
#X connect 20 0 11 0;
#X connect 26 0 34 0;
#X connect 29 0 11 1;
#X connect 30 0 11 2;
#X connect 30 0 33 1;
#X connect 33 0 20 0;
#X coords 0 -1 1 1 385 60 2 100 100;
#X restore 114 190 pd osc-utility1;
#N canvas 740 309 544 462 osc-utility1 0;
#X obj 21 372 s;
#X symbolatom 104 140 10 0 0 0 - - -;
#X text 104 125 send to;
#X obj 21 238 spigot;
#X floatatom 239 142 5 0 0 0 - - -;
#X text 238 127 val;
#X obj 113 113 tgl 15 0 empty empty empty 17 7 0 10 -262144 -1 -1 0
1;
#X obj 189 239 loadbang;
#X msg 86 281 0;
#X msg 216 280 0;
#X text 51 322 f(x) = [(b-a)*(x-min)/(max-min)] + a;
#X obj 21 303 expr ($f5 - $f4)*($f1-$f2) / ($f3-$f2) + $f4;
#X msg 252 281 1;
#X floatatom 360 142 5 0 0 2 A - -;
#X floatatom 397 142 5 0 0 2 B - -;
#X text 101 100 On/Off;
#X floatatom 451 114 5 1 4 0 - - -;
#X text 452 97 exp;
#X obj 21 215 inlet;
#X msg 151 282 1;
#X obj 21 281 pow 1;
#X text 376 112 to (a \, b);
#X text 431 139 =>;
#X floatatom 451 141 5 0 0 0 - - -;
#X text 139 336 or;
#X obj 99 354 linscale;
#X symbolatom 170 141 10 0 0 0 - - -;
#X text 171 113 OSC-path;
#X text 167 124 (no 1st /);
#X floatatom 278 142 5 0 0 2 min - -;
#X floatatom 315 142 5 0 0 2 max - -;
#X text 271 111 scale (min \, max);
#X text 18 200 value;
#X obj 21 259 / 1;
#X obj 83 219 s \$0-path4;
#X connect 1 0 0 1;
#X connect 3 0 4 0;
#X connect 3 0 33 0;
#X connect 6 0 3 1;
#X connect 7 0 8 0;
#X connect 7 0 19 0;
#X connect 7 0 9 0;
#X connect 7 0 12 0;
#X connect 8 0 11 1;
#X connect 9 0 11 3;
#X connect 11 0 0 0;
#X connect 11 0 23 0;
#X connect 12 0 16 0;
#X connect 12 0 14 0;
#X connect 13 0 11 3;
#X connect 14 0 11 4;
#X connect 16 0 20 1;
#X connect 18 0 3 0;
#X connect 19 0 11 2;
#X connect 20 0 11 0;
#X connect 26 0 34 0;
#X connect 29 0 11 1;
#X connect 30 0 11 2;
#X connect 30 0 33 1;
#X connect 33 0 20 0;
#X coords 0 -1 1 1 385 60 2 100 100;
#X restore 501 190 pd osc-utility1;
#N canvas 740 309 544 462 osc-utility1 0;
#X obj 21 372 s;
#X symbolatom 104 140 10 0 0 0 - - -;
#X text 104 125 send to;
#X obj 21 238 spigot;
#X floatatom 239 142 5 0 0 0 - - -;
#X text 238 127 val;
#X obj 113 113 tgl 15 0 empty empty empty 17 7 0 10 -262144 -1 -1 0
1;
#X obj 189 239 loadbang;
#X msg 86 281 0;
#X msg 216 280 0;
#X text 51 322 f(x) = [(b-a)*(x-min)/(max-min)] + a;
#X obj 21 303 expr ($f5 - $f4)*($f1-$f2) / ($f3-$f2) + $f4;
#X msg 252 281 1;
#X floatatom 360 142 5 0 0 2 A - -;
#X floatatom 397 142 5 0 0 2 B - -;
#X text 101 100 On/Off;
#X floatatom 451 114 5 1 4 0 - - -;
#X text 452 97 exp;
#X obj 21 215 inlet;
#X msg 151 282 1;
#X obj 21 281 pow 1;
#X text 376 112 to (a \, b);
#X text 431 139 =>;
#X floatatom 451 141 5 0 0 0 - - -;
#X text 139 336 or;
#X obj 99 354 linscale;
#X symbolatom 170 141 10 0 0 0 - - -;
#X text 171 113 OSC-path;
#X text 167 124 (no 1st /);
#X floatatom 278 142 5 0 0 2 min - -;
#X floatatom 315 142 5 0 0 2 max - -;
#X text 271 111 scale (min \, max);
#X text 18 200 value;
#X obj 21 259 / 1;
#X obj 83 219 s \$0-path5;
#X connect 1 0 0 1;
#X connect 3 0 4 0;
#X connect 3 0 33 0;
#X connect 6 0 3 1;
#X connect 7 0 8 0;
#X connect 7 0 19 0;
#X connect 7 0 9 0;
#X connect 7 0 12 0;
#X connect 8 0 11 1;
#X connect 9 0 11 3;
#X connect 11 0 0 0;
#X connect 11 0 23 0;
#X connect 12 0 16 0;
#X connect 12 0 14 0;
#X connect 13 0 11 3;
#X connect 14 0 11 4;
#X connect 16 0 20 1;
#X connect 18 0 3 0;
#X connect 19 0 11 2;
#X connect 20 0 11 0;
#X connect 26 0 34 0;
#X connect 29 0 11 1;
#X connect 30 0 11 2;
#X connect 30 0 33 1;
#X connect 33 0 20 0;
#X coords 0 -1 1 1 385 60 2 100 100;
#X restore 114 252 pd osc-utility1;
#N canvas 740 309 544 462 osc-utility1 0;
#X obj 21 372 s;
#X symbolatom 104 140 10 0 0 0 - - -;
#X text 104 125 send to;
#X obj 21 238 spigot;
#X floatatom 239 142 5 0 0 0 - - -;
#X text 238 127 val;
#X obj 113 113 tgl 15 0 empty empty empty 17 7 0 10 -262144 -1 -1 0
1;
#X obj 189 239 loadbang;
#X msg 86 281 0;
#X msg 216 280 0;
#X text 51 322 f(x) = [(b-a)*(x-min)/(max-min)] + a;
#X obj 21 303 expr ($f5 - $f4)*($f1-$f2) / ($f3-$f2) + $f4;
#X msg 252 281 1;
#X floatatom 360 142 5 0 0 2 A - -;
#X floatatom 397 142 5 0 0 2 B - -;
#X text 101 100 On/Off;
#X floatatom 451 114 5 1 4 0 - - -;
#X text 452 97 exp;
#X obj 21 215 inlet;
#X msg 151 282 1;
#X obj 21 281 pow 1;
#X text 376 112 to (a \, b);
#X text 431 139 =>;
#X floatatom 451 141 5 0 0 0 - - -;
#X text 139 336 or;
#X obj 99 354 linscale;
#X symbolatom 170 141 10 0 0 0 - - -;
#X text 171 113 OSC-path;
#X text 167 124 (no 1st /);
#X floatatom 278 142 5 0 0 2 min - -;
#X floatatom 315 142 5 0 0 2 max - -;
#X text 271 111 scale (min \, max);
#X text 18 200 value;
#X obj 21 259 / 1;
#X obj 83 219 s \$0-path6;
#X connect 1 0 0 1;
#X connect 3 0 4 0;
#X connect 3 0 33 0;
#X connect 6 0 3 1;
#X connect 7 0 8 0;
#X connect 7 0 19 0;
#X connect 7 0 9 0;
#X connect 7 0 12 0;
#X connect 8 0 11 1;
#X connect 9 0 11 3;
#X connect 11 0 0 0;
#X connect 11 0 23 0;
#X connect 12 0 16 0;
#X connect 12 0 14 0;
#X connect 13 0 11 3;
#X connect 14 0 11 4;
#X connect 16 0 20 1;
#X connect 18 0 3 0;
#X connect 19 0 11 2;
#X connect 20 0 11 0;
#X connect 26 0 34 0;
#X connect 29 0 11 1;
#X connect 30 0 11 2;
#X connect 30 0 33 1;
#X connect 33 0 20 0;
#X coords 0 -1 1 1 385 60 2 100 100;
#X restore 501 252 pd osc-utility1;
#N canvas 740 309 544 462 osc-utility1 0;
#X obj 21 372 s;
#X symbolatom 104 140 10 0 0 0 - - -;
#X text 104 125 send to;
#X obj 21 238 spigot;
#X floatatom 239 142 5 0 0 0 - - -;
#X text 238 127 val;
#X obj 113 113 tgl 15 0 empty empty empty 17 7 0 10 -262144 -1 -1 0
1;
#X obj 189 239 loadbang;
#X msg 86 281 0;
#X msg 216 280 0;
#X text 51 322 f(x) = [(b-a)*(x-min)/(max-min)] + a;
#X obj 21 303 expr ($f5 - $f4)*($f1-$f2) / ($f3-$f2) + $f4;
#X msg 252 281 1;
#X floatatom 360 142 5 0 0 2 A - -;
#X floatatom 397 142 5 0 0 2 B - -;
#X text 101 100 On/Off;
#X floatatom 451 114 5 1 4 0 - - -;
#X text 452 97 exp;
#X obj 21 215 inlet;
#X msg 151 282 1;
#X obj 21 281 pow 1;
#X text 376 112 to (a \, b);
#X text 431 139 =>;
#X floatatom 451 141 5 0 0 0 - - -;
#X text 139 336 or;
#X obj 99 354 linscale;
#X symbolatom 170 141 10 0 0 0 - - -;
#X text 171 113 OSC-path;
#X text 167 124 (no 1st /);
#X floatatom 278 142 5 0 0 2 min - -;
#X floatatom 315 142 5 0 0 2 max - -;
#X text 271 111 scale (min \, max);
#X text 18 200 value;
#X obj 21 259 / 1;
#X obj 83 219 s \$0-path7;
#X connect 1 0 0 1;
#X connect 3 0 4 0;
#X connect 3 0 33 0;
#X connect 6 0 3 1;
#X connect 7 0 8 0;
#X connect 7 0 19 0;
#X connect 7 0 9 0;
#X connect 7 0 12 0;
#X connect 8 0 11 1;
#X connect 9 0 11 3;
#X connect 11 0 0 0;
#X connect 11 0 23 0;
#X connect 12 0 16 0;
#X connect 12 0 14 0;
#X connect 13 0 11 3;
#X connect 14 0 11 4;
#X connect 16 0 20 1;
#X connect 18 0 3 0;
#X connect 19 0 11 2;
#X connect 20 0 11 0;
#X connect 26 0 34 0;
#X connect 29 0 11 1;
#X connect 30 0 11 2;
#X connect 30 0 33 1;
#X connect 33 0 20 0;
#X coords 0 -1 1 1 385 60 2 100 100;
#X restore 114 314 pd osc-utility1;
#N canvas 740 309 544 462 osc-utility1 0;
#X obj 21 372 s;
#X symbolatom 104 140 10 0 0 0 - - -;
#X text 104 125 send to;
#X obj 21 238 spigot;
#X floatatom 239 142 5 0 0 0 - - -;
#X text 238 127 val;
#X obj 113 113 tgl 15 0 empty empty empty 17 7 0 10 -262144 -1 -1 0
1;
#X obj 189 239 loadbang;
#X msg 86 281 0;
#X msg 216 280 0;
#X text 51 322 f(x) = [(b-a)*(x-min)/(max-min)] + a;
#X obj 21 303 expr ($f5 - $f4)*($f1-$f2) / ($f3-$f2) + $f4;
#X msg 252 281 1;
#X floatatom 360 142 5 0 0 2 A - -;
#X floatatom 397 142 5 0 0 2 B - -;
#X text 101 100 On/Off;
#X floatatom 451 114 5 1 4 0 - - -;
#X text 452 97 exp;
#X obj 21 215 inlet;
#X msg 151 282 1;
#X obj 21 281 pow 1;
#X text 376 112 to (a \, b);
#X text 431 139 =>;
#X floatatom 451 141 5 0 0 0 - - -;
#X text 139 336 or;
#X obj 99 354 linscale;
#X symbolatom 170 141 10 0 0 0 - - -;
#X text 171 113 OSC-path;
#X text 167 124 (no 1st /);
#X floatatom 278 142 5 0 0 2 min - -;
#X floatatom 315 142 5 0 0 2 max - -;
#X text 271 111 scale (min \, max);
#X text 18 200 value;
#X obj 21 259 / 1;
#X obj 83 219 s \$0-path8;
#X connect 1 0 0 1;
#X connect 3 0 4 0;
#X connect 3 0 33 0;
#X connect 6 0 3 1;
#X connect 7 0 8 0;
#X connect 7 0 19 0;
#X connect 7 0 9 0;
#X connect 7 0 12 0;
#X connect 8 0 11 1;
#X connect 9 0 11 3;
#X connect 11 0 0 0;
#X connect 11 0 23 0;
#X connect 12 0 16 0;
#X connect 12 0 14 0;
#X connect 13 0 11 3;
#X connect 14 0 11 4;
#X connect 16 0 20 1;
#X connect 18 0 3 0;
#X connect 19 0 11 2;
#X connect 20 0 11 0;
#X connect 26 0 34 0;
#X connect 29 0 11 1;
#X connect 30 0 11 2;
#X connect 30 0 33 1;
#X connect 33 0 20 0;
#X coords 0 -1 1 1 385 60 2 100 100;
#X restore 501 314 pd osc-utility1;
#N canvas 740 309 544 462 osc-utility1 0;
#X obj 21 372 s;
#X symbolatom 104 140 10 0 0 0 - - -;
#X text 104 125 send to;
#X obj 21 238 spigot;
#X floatatom 239 142 5 0 0 0 - - -;
#X text 238 127 val;
#X obj 113 113 tgl 15 0 empty empty empty 17 7 0 10 -262144 -1 -1 0
1;
#X obj 189 239 loadbang;
#X msg 86 281 0;
#X msg 216 280 0;
#X text 51 322 f(x) = [(b-a)*(x-min)/(max-min)] + a;
#X obj 21 303 expr ($f5 - $f4)*($f1-$f2) / ($f3-$f2) + $f4;
#X msg 252 281 1;
#X floatatom 360 142 5 0 0 2 A - -;
#X floatatom 397 142 5 0 0 2 B - -;
#X text 101 100 On/Off;
#X floatatom 451 114 5 1 4 0 - - -;
#X text 452 97 exp;
#X obj 21 215 inlet;
#X msg 151 282 1;
#X obj 21 281 pow 1;
#X text 376 112 to (a \, b);
#X text 431 139 =>;
#X floatatom 451 141 5 0 0 0 - - -;
#X text 139 336 or;
#X obj 99 354 linscale;
#X symbolatom 170 141 10 0 0 0 - - -;
#X text 171 113 OSC-path;
#X text 167 124 (no 1st /);
#X floatatom 278 142 5 0 0 2 min - -;
#X floatatom 315 142 5 0 0 2 max - -;
#X text 271 111 scale (min \, max);
#X text 18 200 value;
#X obj 21 259 / 1;
#X obj 83 219 s \$0-path9;
#X connect 1 0 0 1;
#X connect 3 0 4 0;
#X connect 3 0 33 0;
#X connect 6 0 3 1;
#X connect 7 0 8 0;
#X connect 7 0 19 0;
#X connect 7 0 9 0;
#X connect 7 0 12 0;
#X connect 8 0 11 1;
#X connect 9 0 11 3;
#X connect 11 0 0 0;
#X connect 11 0 23 0;
#X connect 12 0 16 0;
#X connect 12 0 14 0;
#X connect 13 0 11 3;
#X connect 14 0 11 4;
#X connect 16 0 20 1;
#X connect 18 0 3 0;
#X connect 19 0 11 2;
#X connect 20 0 11 0;
#X connect 26 0 34 0;
#X connect 29 0 11 1;
#X connect 30 0 11 2;
#X connect 30 0 33 1;
#X connect 33 0 20 0;
#X coords 0 -1 1 1 385 60 2 100 100;
#X restore 114 376 pd osc-utility1;
#N canvas 740 309 544 462 osc-utility1 0;
#X obj 21 372 s;
#X symbolatom 104 140 10 0 0 0 - - -;
#X text 104 125 send to;
#X obj 21 238 spigot;
#X floatatom 239 142 5 0 0 0 - - -;
#X text 238 127 val;
#X obj 113 113 tgl 15 0 empty empty empty 17 7 0 10 -262144 -1 -1 0
1;
#X obj 189 239 loadbang;
#X msg 86 281 0;
#X msg 216 280 0;
#X text 51 322 f(x) = [(b-a)*(x-min)/(max-min)] + a;
#X obj 21 303 expr ($f5 - $f4)*($f1-$f2) / ($f3-$f2) + $f4;
#X msg 252 281 1;
#X floatatom 360 142 5 0 0 2 A - -;
#X floatatom 397 142 5 0 0 2 B - -;
#X text 101 100 On/Off;
#X floatatom 451 114 5 1 4 0 - - -;
#X text 452 97 exp;
#X obj 21 215 inlet;
#X msg 151 282 1;
#X obj 21 281 pow 1;
#X text 376 112 to (a \, b);
#X text 431 139 =>;
#X floatatom 451 141 5 0 0 0 - - -;
#X text 139 336 or;
#X obj 99 354 linscale;
#X symbolatom 170 141 10 0 0 0 - - -;
#X text 171 113 OSC-path;
#X text 167 124 (no 1st /);
#X floatatom 278 142 5 0 0 2 min - -;
#X floatatom 315 142 5 0 0 2 max - -;
#X text 271 111 scale (min \, max);
#X text 18 200 value;
#X obj 21 259 / 1;
#X obj 83 219 s \$0-path10;
#X connect 1 0 0 1;
#X connect 3 0 4 0;
#X connect 3 0 33 0;
#X connect 6 0 3 1;
#X connect 7 0 8 0;
#X connect 7 0 19 0;
#X connect 7 0 9 0;
#X connect 7 0 12 0;
#X connect 8 0 11 1;
#X connect 9 0 11 3;
#X connect 11 0 0 0;
#X connect 11 0 23 0;
#X connect 12 0 16 0;
#X connect 12 0 14 0;
#X connect 13 0 11 3;
#X connect 14 0 11 4;
#X connect 16 0 20 1;
#X connect 18 0 3 0;
#X connect 19 0 11 2;
#X connect 20 0 11 0;
#X connect 26 0 34 0;
#X connect 29 0 11 1;
#X connect 30 0 11 2;
#X connect 30 0 33 1;
#X connect 33 0 20 0;
#X coords 0 -1 1 1 385 60 2 100 100;
#X restore 501 376 pd osc-utility1;
#X text 804 112 UdpPort;
#X obj 80 -141 r \$0-path1;
#X obj 90 -131 r \$0-path2;
#X obj 157 -141 r \$0-path3;
#X obj 167 -131 r \$0-path4;
#X obj 238 -144 r \$0-path5;
#X obj 248 -134 r \$0-path 6;
#X obj 326 -142 r \$0-path7;
#X obj 336 -132 r \$0-path8;
#X obj 407 -144 r \$0-path9;
#X obj 417 -134 r \$0-path10;
#X connect 0 0 1 0;
#X connect 0 1 1 1;
#X connect 1 0 3 0;
#X connect 2 0 7 0;
#X connect 3 0 10 0;
#X connect 3 1 11 0;
#X connect 3 2 12 0;
#X connect 3 3 13 0;
#X connect 3 4 14 0;
#X connect 3 5 15 0;
#X connect 3 6 16 0;
#X connect 3 7 17 0;
#X connect 3 8 18 0;
#X connect 3 9 19 0;
#X connect 4 0 3 0;
#X connect 5 0 6 0;
#X connect 6 0 4 0;
#X connect 7 0 0 0;
#X connect 8 0 7 0;
#X connect 9 0 8 0;
#X connect 21 0 5 0;
#X connect 22 0 5 1;
#X connect 23 0 5 2;
#X connect 24 0 5 3;
#X connect 25 0 5 4;
#X connect 26 0 5 5;
#X connect 27 0 5 6;
#X connect 28 0 5 7;
#X connect 29 0 5 8;
#X connect 30 0 5 9;
#X coords 0 -1 1 1 800 350 2 100 100;
