#N canvas 0 22 717 557 10;
#X obj 44 317 s;
#X symbolatom 40 63 10 0 0 0 - - -;
#X text 40 48 send to;
#X obj 44 148 spigot;
#X floatatom 175 65 5 0 0 0 - - -;
#X text 174 50 val;
#X obj 49 36 tgl 15 0 empty empty empty 17 7 0 10 -262144 -1 -1 0 1
;
#X obj 212 184 loadbang;
#X msg 109 226 0;
#X msg 239 225 0;
#X text 74 267 f(x) = [(b-a)*(x-min)/(max-min)] + a;
#X obj 44 248 expr ($f5 - $f4)*($f1-$f2) / ($f3-$f2) + $f4;
#X msg 275 226 1;
#X floatatom 296 65 5 0 0 2 A - -;
#X floatatom 333 65 5 0 0 2 B - -;
#X text 37 21 On/Off;
#X floatatom 387 37 5 1 4 0 - - -;
#X text 388 20 exp;
#X obj 44 125 inlet;
#X msg 174 227 1;
#X obj 44 226 pow 1;
#X text 312 35 to (a \, b);
#X text 367 62 =>;
#X floatatom 387 64 5 0 0 0 - - -;
#X text 162 281 or;
#X obj 122 299 linscale;
#X symbolatom 106 64 10 0 0 0 - - -;
#X text 107 36 OSC-path;
#X obj 105 380 outlet;
#X floatatom 214 65 5 0 0 2 min - -;
#X floatatom 251 65 5 0 0 2 max - -;
#X text 207 34 scale (min \, max);
#X text 41 110 value;
#X obj 44 204 / 1;
#X text 103 47 (no /);
#X connect 1 0 0 1;
#X connect 3 0 4 0;
#X connect 3 0 33 0;
#X connect 6 0 3 1;
#X connect 7 0 8 0;
#X connect 7 0 19 0;
#X connect 7 0 9 0;
#X connect 7 0 12 0;
#X connect 8 0 11 1;
#X connect 9 0 11 3;
#X connect 11 0 0 0;
#X connect 11 0 23 0;
#X connect 12 0 16 0;
#X connect 12 0 14 0;
#X connect 13 0 11 3;
#X connect 14 0 11 4;
#X connect 16 0 20 1;
#X connect 18 0 3 0;
#X connect 19 0 11 2;
#X connect 20 0 11 0;
#X connect 26 0 28 0;
#X connect 29 0 11 1;
#X connect 30 0 11 2;
#X connect 30 0 33 1;
#X connect 33 0 20 0;
