#N canvas 326 282 1002 366 10;
#X declare -lib mrpeach;
#X obj 3 4 OSC-ut-parse;
#X text 810 42 http://recipient.cc;
#X text 808 5 Alessandro Inguglia;
#X text 808 17 alessandro[@]recipient.cc;
#X text 809 30 Recipient Collective [2014];
