#N canvas 141 251 466 519 10;
#X obj 108 395 s;
#X symbolatom 104 141 10 0 0 0 - - -;
#X text 104 126 send to;
#X obj 169 105 tgl 15 0 empty empty empty 17 7 0 10 -258113 -1 -1 0
1;
#X text 187 105 learn;
#X obj 182 243 spigot;
#X obj 108 226 spigot;
#X floatatom 207 141 5 0 0 0 - - -;
#X text 206 126 val;
#X floatatom 170 141 5 0 0 0 - - -;
#X text 167 126 cc;
#X obj 113 114 tgl 15 0 empty empty empty 17 7 0 10 -262144 -1 -1 0
1;
#X obj 276 262 loadbang;
#X msg 173 304 0;
#X msg 303 303 0;
#X text 138 345 f(x) = [(b-a)*(x-min)/(max-min)] + a;
#X obj 108 326 expr ($f5 - $f4)*($f1-$f2) / ($f3-$f2) + $f4;
#X msg 339 304 1;
#X floatatom 246 142 5 0 0 2 A - -;
#X floatatom 283 142 5 0 0 2 B - -;
#X text 101 99 On/Off;
#X floatatom 337 114 5 1 4 0 - - -;
#X text 338 97 exp;
#X obj 108 203 inlet;
#X obj 182 217 inlet;
#X text 176 199 cc number;
#X text 105 188 cc value;
#X obj 108 282 / 127;
#X msg 238 305 1;
#X obj 108 304 pow 1;
#X text 237 100 scale (0 \, 127);
#X text 262 114 to (a \, b);
#X obj 168 271 == \$1;
#X floatatom 218 277 5 0 0 0 - - -;
#X obj 108 247 spigot;
#X text 317 141 =>;
#X floatatom 337 141 5 0 0 0 - - -;
#X text 226 359 or;
#X obj 186 377 linscale;
#X connect 1 0 0 1;
#X connect 3 0 5 1;
#X connect 5 0 9 0;
#X connect 6 0 34 0;
#X connect 9 0 32 1;
#X connect 11 0 6 1;
#X connect 12 0 13 0;
#X connect 12 0 28 0;
#X connect 12 0 14 0;
#X connect 12 0 17 0;
#X connect 13 0 16 1;
#X connect 14 0 16 3;
#X connect 16 0 0 0;
#X connect 16 0 36 0;
#X connect 17 0 21 0;
#X connect 17 0 19 0;
#X connect 18 0 16 3;
#X connect 19 0 16 4;
#X connect 21 0 29 1;
#X connect 23 0 6 0;
#X connect 24 0 5 0;
#X connect 24 0 32 0;
#X connect 27 0 29 0;
#X connect 28 0 16 2;
#X connect 29 0 16 0;
#X connect 32 0 33 0;
#X connect 32 0 34 1;
#X connect 34 0 27 0;
#X connect 34 0 7 0;
#X coords 0 -1 1 1 275 60 2 100 100;
