#N canvas 661 111 740 679 10;
#X obj 5 6 ten-CCutilities;
#X text 574 38 http://recipient.cc;
#X text 572 1 Alessandro Inguglia;
#X text 572 13 alessandro[@]recipient.cc;
#X text 573 26 Recipient Collective [2014];
