#N canvas 0 22 704 808 10;
#X obj 104 63 ctlin;
#X obj 106 115 midicc_utility;
#X obj 383 115 midicc_utility;
#X obj 106 178 midicc_utility;
#X obj 383 178 midicc_utility;
#X obj 106 240 midicc_utility;
#X obj 383 240 midicc_utility;
#X obj 106 303 midicc_utility;
#X obj 383 303 midicc_utility;
#X obj 106 365 midicc_utility;
#X obj 383 365 midicc_utility;
#X obj 107 427 midicc_utility;
#X obj 384 427 midicc_utility;
#X obj 107 490 midicc_utility;
#X obj 384 490 midicc_utility;
#X obj 107 552 midicc_utility;
#X obj 384 552 midicc_utility;
#X obj 107 615 midicc_utility;
#X obj 384 615 midicc_utility;
#X obj 107 677 midicc_utility;
#X obj 384 677 midicc_utility;
#X connect 0 0 1 0;
#X connect 0 0 3 0;
#X connect 0 0 5 0;
#X connect 0 0 7 0;
#X connect 0 0 9 0;
#X connect 0 0 11 0;
#X connect 0 0 13 0;
#X connect 0 0 15 0;
#X connect 0 0 17 0;
#X connect 0 0 19 0;
#X connect 0 0 4 0;
#X connect 0 0 6 0;
#X connect 0 0 8 0;
#X connect 0 0 10 0;
#X connect 0 0 12 0;
#X connect 0 0 14 0;
#X connect 0 0 16 0;
#X connect 0 0 18 0;
#X connect 0 0 20 0;
#X connect 0 1 1 1;
#X coords 0 -1 1 1 565 650 2 100 100;
